<svg xmlns="http://www.w3.org/2000/svg" xmlns:xlink="http://www.w3.org/1999/xlink" width="500" zoomAndPan="magnify" viewBox="0 0 375 374.999991" height="500" preserveAspectRatio="xMidYMid meet" version="1.0"><defs><g/><clipPath id="03e0ebe791"><path d="M 126 80 L 249.375 80 L 249.375 229 L 126 229 Z M 126 80 " clip-rule="nonzero"/></clipPath></defs><rect x="-37.5" width="450" fill="#ffffff" y="-37.499999" height="449.999989" fill-opacity="1"/><rect x="-37.5" width="450" fill="#ffffff" y="-37.499999" height="449.999989" fill-opacity="1"/><rect x="-37.5" width="450" fill="#ffffff" y="-37.499999" height="449.999989" fill-opacity="1"/><g clip-path="url(#03e0ebe791)"><path fill="#000000" d="M 249.367188 184.5625 L 222.949219 194.539062 C 217.160156 196.722656 210.628906 194.855469 206.875 189.9375 L 203.179688 185.097656 L 179.410156 153.957031 L 127.703125 86.21875 C 125.632812 83.503906 128.410156 79.769531 131.605469 80.976562 L 185.960938 101.5 L 202.371094 122.996094 L 226.140625 154.132812 Z M 129.066406 221.820312 C 126.601562 225.144531 129.992188 229.632812 133.863281 228.171875 L 185.753906 208.578125 L 198.46875 191.441406 L 174.695312 160.300781 Z M 230.554688 150.699219 L 246.726562 126.179688 C 234.992188 116.789062 206.558594 113.398438 206.558594 113.398438 C 208.644531 120.957031 230.554688 150.699219 230.554688 150.699219 Z M 230.554688 150.699219 " fill-opacity="1" fill-rule="nonzero"/></g><g fill="#000000" fill-opacity="1"><g transform="translate(89.261717, 261.750012)"><g><path d="M 17.375 -6.953125 L 6.203125 -6.953125 C 6.203125 -5.878906 6.550781 -5.082031 7.25 -4.5625 C 7.957031 -4.039062 8.722656 -3.78125 9.546875 -3.78125 C 10.398438 -3.78125 11.078125 -3.894531 11.578125 -4.125 C 12.078125 -4.351562 12.648438 -4.804688 13.296875 -5.484375 L 17.125 -3.5625 C 15.53125 -0.882812 12.875 0.453125 9.15625 0.453125 C 6.832031 0.453125 4.835938 -0.335938 3.171875 -1.921875 C 1.515625 -3.515625 0.6875 -5.429688 0.6875 -7.671875 C 0.6875 -9.921875 1.515625 -11.84375 3.171875 -13.4375 C 4.835938 -15.039062 6.832031 -15.84375 9.15625 -15.84375 C 11.59375 -15.84375 13.578125 -15.132812 15.109375 -13.71875 C 16.640625 -12.3125 17.40625 -10.300781 17.40625 -7.6875 C 17.40625 -7.320312 17.394531 -7.078125 17.375 -6.953125 Z M 6.359375 -9.90625 L 12.203125 -9.90625 C 12.085938 -10.695312 11.773438 -11.304688 11.265625 -11.734375 C 10.753906 -12.171875 10.097656 -12.390625 9.296875 -12.390625 C 8.421875 -12.390625 7.722656 -12.160156 7.203125 -11.703125 C 6.679688 -11.242188 6.398438 -10.644531 6.359375 -9.90625 Z M 6.359375 -9.90625 "/></g></g></g><g fill="#000000" fill-opacity="1"><g transform="translate(107.351701, 261.750012)"><g><path d="M 24.953125 0 L 17.671875 0 L 11.8125 -8.4375 L 5.96875 0 L -1.015625 0 L 8.34375 -13.3125 L 0.546875 -24.75 L 7.265625 -24.75 L 11.8125 -18 L 16.375 -24.75 L 23.40625 -24.75 L 15.296875 -13.3125 Z M 24.953125 0 "/></g></g></g><g fill="#000000" fill-opacity="1"><g transform="translate(131.291676, 261.750012)"><g><path d="M 2.703125 -15.390625 L 2.703125 -21.125 L 8.015625 -21.125 L 8.015625 -15.390625 L 11.25 -15.390625 L 11.25 -11.34375 L 8.015625 -11.34375 L 8.015625 -6.453125 C 8.015625 -5.023438 8.410156 -4.3125 9.203125 -4.3125 C 9.410156 -4.3125 9.625 -4.351562 9.84375 -4.4375 C 10.0625 -4.519531 10.226562 -4.601562 10.34375 -4.6875 L 10.53125 -4.796875 L 11.84375 -0.515625 C 10.707031 0.128906 9.410156 0.453125 7.953125 0.453125 C 6.953125 0.453125 6.09375 0.28125 5.375 -0.0625 C 4.65625 -0.414062 4.109375 -0.890625 3.734375 -1.484375 C 3.367188 -2.078125 3.101562 -2.695312 2.9375 -3.34375 C 2.78125 -3.988281 2.703125 -4.6875 2.703125 -5.4375 L 2.703125 -11.34375 L 0.484375 -11.34375 L 0.484375 -15.390625 Z M 2.703125 -15.390625 "/></g></g></g><g fill="#000000" fill-opacity="1"><g transform="translate(143.141666, 261.750012)"><g><path d="M 17.375 -6.953125 L 6.203125 -6.953125 C 6.203125 -5.878906 6.550781 -5.082031 7.25 -4.5625 C 7.957031 -4.039062 8.722656 -3.78125 9.546875 -3.78125 C 10.398438 -3.78125 11.078125 -3.894531 11.578125 -4.125 C 12.078125 -4.351562 12.648438 -4.804688 13.296875 -5.484375 L 17.125 -3.5625 C 15.53125 -0.882812 12.875 0.453125 9.15625 0.453125 C 6.832031 0.453125 4.835938 -0.335938 3.171875 -1.921875 C 1.515625 -3.515625 0.6875 -5.429688 0.6875 -7.671875 C 0.6875 -9.921875 1.515625 -11.84375 3.171875 -13.4375 C 4.835938 -15.039062 6.832031 -15.84375 9.15625 -15.84375 C 11.59375 -15.84375 13.578125 -15.132812 15.109375 -13.71875 C 16.640625 -12.3125 17.40625 -10.300781 17.40625 -7.6875 C 17.40625 -7.320312 17.394531 -7.078125 17.375 -6.953125 Z M 6.359375 -9.90625 L 12.203125 -9.90625 C 12.085938 -10.695312 11.773438 -11.304688 11.265625 -11.734375 C 10.753906 -12.171875 10.097656 -12.390625 9.296875 -12.390625 C 8.421875 -12.390625 7.722656 -12.160156 7.203125 -11.703125 C 6.679688 -11.242188 6.398438 -10.644531 6.359375 -9.90625 Z M 6.359375 -9.90625 "/></g></g></g><g fill="#000000" fill-opacity="1"><g transform="translate(161.23165, 261.750012)"><g><path d="M 1.796875 0 L 1.796875 -15.390625 L 7.109375 -15.390625 L 7.109375 -13.171875 L 7.171875 -13.171875 C 7.210938 -13.253906 7.273438 -13.351562 7.359375 -13.46875 C 7.453125 -13.59375 7.648438 -13.800781 7.953125 -14.09375 C 8.253906 -14.394531 8.570312 -14.664062 8.90625 -14.90625 C 9.25 -15.144531 9.691406 -15.359375 10.234375 -15.546875 C 10.773438 -15.742188 11.320312 -15.84375 11.875 -15.84375 C 12.457031 -15.84375 13.03125 -15.757812 13.59375 -15.59375 C 14.15625 -15.4375 14.5625 -15.28125 14.8125 -15.125 L 15.234375 -14.875 L 13.015625 -10.375 C 12.359375 -10.9375 11.441406 -11.21875 10.265625 -11.21875 C 9.617188 -11.21875 9.066406 -11.078125 8.609375 -10.796875 C 8.148438 -10.515625 7.820312 -10.175781 7.625 -9.78125 C 7.4375 -9.382812 7.300781 -9.046875 7.21875 -8.765625 C 7.144531 -8.484375 7.109375 -8.257812 7.109375 -8.09375 L 7.109375 0 Z M 1.796875 0 "/></g></g></g><g fill="#000000" fill-opacity="1"><g transform="translate(176.171636, 261.750012)"><g><path d="M 1.796875 0 L 1.796875 -15.390625 L 7.109375 -15.390625 L 7.109375 -13.765625 L 7.171875 -13.765625 C 8.546875 -15.148438 10.015625 -15.84375 11.578125 -15.84375 C 12.335938 -15.84375 13.09375 -15.738281 13.84375 -15.53125 C 14.59375 -15.332031 15.3125 -15.023438 16 -14.609375 C 16.695312 -14.191406 17.257812 -13.597656 17.6875 -12.828125 C 18.113281 -12.054688 18.328125 -11.160156 18.328125 -10.140625 L 18.328125 0 L 13.015625 0 L 13.015625 -8.703125 C 13.015625 -9.503906 12.757812 -10.203125 12.25 -10.796875 C 11.738281 -11.398438 11.078125 -11.703125 10.265625 -11.703125 C 9.460938 -11.703125 8.734375 -11.390625 8.078125 -10.765625 C 7.429688 -10.148438 7.109375 -9.460938 7.109375 -8.703125 L 7.109375 0 Z M 1.796875 0 "/></g></g></g><g fill="#000000" fill-opacity="1"><g transform="translate(196.001613, 261.750012)"><g><path d="M 8.484375 -15.84375 C 9.367188 -15.84375 10.238281 -15.738281 11.09375 -15.53125 C 11.957031 -15.332031 12.597656 -15.132812 13.015625 -14.9375 L 13.65625 -14.640625 L 11.90625 -11.15625 C 10.707031 -11.800781 9.566406 -12.125 8.484375 -12.125 C 7.890625 -12.125 7.46875 -12.054688 7.21875 -11.921875 C 6.96875 -11.796875 6.84375 -11.550781 6.84375 -11.1875 C 6.84375 -11.101562 6.851562 -11.019531 6.875 -10.9375 C 6.894531 -10.863281 6.929688 -10.789062 6.984375 -10.71875 C 7.046875 -10.65625 7.101562 -10.597656 7.15625 -10.546875 C 7.207031 -10.492188 7.289062 -10.4375 7.40625 -10.375 C 7.53125 -10.320312 7.625 -10.28125 7.6875 -10.25 C 7.757812 -10.21875 7.875 -10.171875 8.03125 -10.109375 C 8.195312 -10.046875 8.316406 -10 8.390625 -9.96875 C 8.472656 -9.945312 8.609375 -9.90625 8.796875 -9.84375 C 8.992188 -9.78125 9.140625 -9.738281 9.234375 -9.71875 C 9.859375 -9.539062 10.398438 -9.34375 10.859375 -9.125 C 11.316406 -8.90625 11.800781 -8.601562 12.3125 -8.21875 C 12.820312 -7.84375 13.21875 -7.363281 13.5 -6.78125 C 13.78125 -6.195312 13.921875 -5.535156 13.921875 -4.796875 C 13.921875 -1.296875 11.488281 0.453125 6.625 0.453125 C 5.53125 0.453125 4.488281 0.285156 3.5 -0.046875 C 2.507812 -0.390625 1.789062 -0.734375 1.34375 -1.078125 L 0.6875 -1.625 L 2.84375 -5.25 C 3.007812 -5.113281 3.222656 -4.945312 3.484375 -4.75 C 3.742188 -4.5625 4.210938 -4.300781 4.890625 -3.96875 C 5.566406 -3.644531 6.15625 -3.484375 6.65625 -3.484375 C 7.757812 -3.484375 8.3125 -3.851562 8.3125 -4.59375 C 8.3125 -4.925781 8.171875 -5.1875 7.890625 -5.375 C 7.609375 -5.570312 7.128906 -5.789062 6.453125 -6.03125 C 5.785156 -6.269531 5.265625 -6.488281 4.890625 -6.6875 C 3.929688 -7.1875 3.171875 -7.75 2.609375 -8.375 C 2.046875 -9.007812 1.765625 -9.847656 1.765625 -10.890625 C 1.765625 -12.453125 2.367188 -13.664062 3.578125 -14.53125 C 4.796875 -15.40625 6.429688 -15.84375 8.484375 -15.84375 Z M 8.484375 -15.84375 "/></g></g></g><g fill="#000000" fill-opacity="1"><g transform="translate(210.761595, 261.750012)"><g><path d="M 5.21875 -6.421875 C 6.175781 -6.421875 6.988281 -6.082031 7.65625 -5.40625 C 8.332031 -4.738281 8.671875 -3.925781 8.671875 -2.96875 C 8.671875 -2.03125 8.332031 -1.222656 7.65625 -0.546875 C 6.988281 0.117188 6.175781 0.453125 5.21875 0.453125 C 4.28125 0.453125 3.472656 0.117188 2.796875 -0.546875 C 2.128906 -1.222656 1.796875 -2.03125 1.796875 -2.96875 C 1.796875 -3.925781 2.128906 -4.738281 2.796875 -5.40625 C 3.472656 -6.082031 4.28125 -6.421875 5.21875 -6.421875 Z M 5.21875 -6.421875 "/></g></g></g><g fill="#000000" fill-opacity="1"><g transform="translate(221.231588, 261.750012)"><g><path d="M 2.703125 -15.390625 L 2.703125 -21.125 L 8.015625 -21.125 L 8.015625 -15.390625 L 11.25 -15.390625 L 11.25 -11.34375 L 8.015625 -11.34375 L 8.015625 -6.453125 C 8.015625 -5.023438 8.410156 -4.3125 9.203125 -4.3125 C 9.410156 -4.3125 9.625 -4.351562 9.84375 -4.4375 C 10.0625 -4.519531 10.226562 -4.601562 10.34375 -4.6875 L 10.53125 -4.796875 L 11.84375 -0.515625 C 10.707031 0.128906 9.410156 0.453125 7.953125 0.453125 C 6.953125 0.453125 6.09375 0.28125 5.375 -0.0625 C 4.65625 -0.414062 4.109375 -0.890625 3.734375 -1.484375 C 3.367188 -2.078125 3.101562 -2.695312 2.9375 -3.34375 C 2.78125 -3.988281 2.703125 -4.6875 2.703125 -5.4375 L 2.703125 -11.34375 L 0.484375 -11.34375 L 0.484375 -15.390625 Z M 2.703125 -15.390625 "/></g></g></g><g fill="#000000" fill-opacity="1"><g transform="translate(233.081578, 261.750012)"><g><path d="M 17.375 -6.953125 L 6.203125 -6.953125 C 6.203125 -5.878906 6.550781 -5.082031 7.25 -4.5625 C 7.957031 -4.039062 8.722656 -3.78125 9.546875 -3.78125 C 10.398438 -3.78125 11.078125 -3.894531 11.578125 -4.125 C 12.078125 -4.351562 12.648438 -4.804688 13.296875 -5.484375 L 17.125 -3.5625 C 15.53125 -0.882812 12.875 0.453125 9.15625 0.453125 C 6.832031 0.453125 4.835938 -0.335938 3.171875 -1.921875 C 1.515625 -3.515625 0.6875 -5.429688 0.6875 -7.671875 C 0.6875 -9.921875 1.515625 -11.84375 3.171875 -13.4375 C 4.835938 -15.039062 6.832031 -15.84375 9.15625 -15.84375 C 11.59375 -15.84375 13.578125 -15.132812 15.109375 -13.71875 C 16.640625 -12.3125 17.40625 -10.300781 17.40625 -7.6875 C 17.40625 -7.320312 17.394531 -7.078125 17.375 -6.953125 Z M 6.359375 -9.90625 L 12.203125 -9.90625 C 12.085938 -10.695312 11.773438 -11.304688 11.265625 -11.734375 C 10.753906 -12.171875 10.097656 -12.390625 9.296875 -12.390625 C 8.421875 -12.390625 7.722656 -12.160156 7.203125 -11.703125 C 6.679688 -11.242188 6.398438 -10.644531 6.359375 -9.90625 Z M 6.359375 -9.90625 "/></g></g></g><g fill="#000000" fill-opacity="1"><g transform="translate(251.171562, 261.750012)"><g><path d="M 9.984375 -11.484375 C 8.984375 -11.484375 8.125 -11.113281 7.40625 -10.375 C 6.6875 -9.632812 6.328125 -8.742188 6.328125 -7.703125 C 6.328125 -6.648438 6.6875 -5.753906 7.40625 -5.015625 C 8.125 -4.273438 8.984375 -3.90625 9.984375 -3.90625 C 10.460938 -3.90625 10.914062 -3.960938 11.34375 -4.078125 C 11.78125 -4.203125 12.097656 -4.320312 12.296875 -4.4375 L 12.5625 -4.625 L 14.375 -0.9375 C 14.226562 -0.832031 14.03125 -0.703125 13.78125 -0.546875 C 13.53125 -0.398438 12.957031 -0.195312 12.0625 0.0625 C 11.175781 0.320312 10.222656 0.453125 9.203125 0.453125 C 6.941406 0.453125 4.957031 -0.335938 3.25 -1.921875 C 1.539062 -3.515625 0.6875 -5.425781 0.6875 -7.65625 C 0.6875 -9.894531 1.539062 -11.816406 3.25 -13.421875 C 4.957031 -15.035156 6.941406 -15.84375 9.203125 -15.84375 C 10.222656 -15.84375 11.160156 -15.722656 12.015625 -15.484375 C 12.878906 -15.242188 13.492188 -15.003906 13.859375 -14.765625 L 14.375 -14.40625 L 12.5625 -10.765625 C 11.90625 -11.242188 11.046875 -11.484375 9.984375 -11.484375 Z M 9.984375 -11.484375 "/></g></g></g><g fill="#000000" fill-opacity="1"><g transform="translate(265.901549, 261.750012)"><g><path d="M 1.796875 0 L 1.796875 -25.796875 L 7.109375 -25.796875 L 7.109375 -13.765625 L 7.171875 -13.765625 C 8.546875 -15.148438 10.015625 -15.84375 11.578125 -15.84375 C 12.335938 -15.84375 13.09375 -15.738281 13.84375 -15.53125 C 14.59375 -15.332031 15.3125 -15.023438 16 -14.609375 C 16.695312 -14.191406 17.257812 -13.597656 17.6875 -12.828125 C 18.113281 -12.054688 18.328125 -11.160156 18.328125 -10.140625 L 18.328125 0 L 13.015625 0 L 13.015625 -8.703125 C 13.015625 -9.503906 12.757812 -10.203125 12.25 -10.796875 C 11.738281 -11.398438 11.078125 -11.703125 10.265625 -11.703125 C 9.460938 -11.703125 8.734375 -11.390625 8.078125 -10.765625 C 7.429688 -10.148438 7.109375 -9.460938 7.109375 -8.703125 L 7.109375 0 Z M 1.796875 0 "/></g></g></g><g fill="#000000" fill-opacity="1"><g transform="translate(59.464011, 281.649942)"><g><path d="M 7.046875 0 L 6.125 0 L 6.125 -3.703125 L 2 -3.703125 L 2 0 L 1.078125 0 L 1.078125 -7.859375 L 2 -7.859375 L 2 -4.515625 L 6.125 -4.515625 L 6.125 -7.859375 L 7.046875 -7.859375 Z M 7.046875 0 "/></g></g></g><g fill="#000000" fill-opacity="1"><g transform="translate(68.376987, 281.649942)"><g><path d="M 3.4375 0.109375 C 2.5625 0.109375 1.875 -0.15625 1.375 -0.6875 C 0.875 -1.21875 0.625 -1.953125 0.625 -2.890625 C 0.625 -3.835938 0.851562 -4.59375 1.3125 -5.15625 C 1.78125 -5.71875 2.410156 -6 3.203125 -6 C 3.941406 -6 4.523438 -5.753906 4.953125 -5.265625 C 5.378906 -4.773438 5.59375 -4.132812 5.59375 -3.34375 L 5.59375 -2.78125 L 1.546875 -2.78125 C 1.554688 -2.09375 1.726562 -1.566406 2.0625 -1.203125 C 2.394531 -0.847656 2.863281 -0.671875 3.46875 -0.671875 C 4.101562 -0.671875 4.726562 -0.800781 5.34375 -1.0625 L 5.34375 -0.28125 C 5.03125 -0.132812 4.734375 -0.0351562 4.453125 0.015625 C 4.171875 0.078125 3.832031 0.109375 3.4375 0.109375 Z M 3.1875 -5.25 C 2.71875 -5.25 2.34375 -5.09375 2.0625 -4.78125 C 1.78125 -4.476562 1.613281 -4.050781 1.5625 -3.5 L 4.640625 -3.5 C 4.640625 -4.0625 4.515625 -4.492188 4.265625 -4.796875 C 4.015625 -5.097656 3.65625 -5.25 3.1875 -5.25 Z M 3.1875 -5.25 "/></g></g></g><g fill="#000000" fill-opacity="1"><g transform="translate(75.347008, 281.649942)"><g><path d="M 1.84375 0 L 0.953125 0 L 0.953125 -8.359375 L 1.84375 -8.359375 Z M 1.84375 0 "/></g></g></g><g fill="#000000" fill-opacity="1"><g transform="translate(78.930278, 281.649942)"><g><path d="M 3.6875 0.109375 C 3.300781 0.109375 2.945312 0.0390625 2.625 -0.09375 C 2.3125 -0.238281 2.050781 -0.457031 1.84375 -0.75 L 1.765625 -0.75 C 1.816406 -0.40625 1.84375 -0.0820312 1.84375 0.21875 L 1.84375 2.640625 L 0.953125 2.640625 L 0.953125 -5.890625 L 1.671875 -5.890625 L 1.796875 -5.078125 L 1.84375 -5.078125 C 2.070312 -5.398438 2.335938 -5.632812 2.640625 -5.78125 C 2.941406 -5.925781 3.289062 -6 3.6875 -6 C 4.46875 -6 5.066406 -5.726562 5.484375 -5.1875 C 5.910156 -4.65625 6.125 -3.910156 6.125 -2.953125 C 6.125 -1.984375 5.90625 -1.226562 5.46875 -0.6875 C 5.039062 -0.15625 4.445312 0.109375 3.6875 0.109375 Z M 3.5625 -5.234375 C 2.957031 -5.234375 2.519531 -5.066406 2.25 -4.734375 C 1.976562 -4.398438 1.84375 -3.867188 1.84375 -3.140625 L 1.84375 -2.953125 C 1.84375 -2.117188 1.976562 -1.523438 2.25 -1.171875 C 2.53125 -0.816406 2.972656 -0.640625 3.578125 -0.640625 C 4.085938 -0.640625 4.484375 -0.84375 4.765625 -1.25 C 5.054688 -1.664062 5.203125 -2.234375 5.203125 -2.953125 C 5.203125 -3.691406 5.054688 -4.253906 4.765625 -4.640625 C 4.484375 -5.035156 4.082031 -5.234375 3.5625 -5.234375 Z M 3.5625 -5.234375 "/></g></g></g><g fill="#000000" fill-opacity="1"><g transform="translate(86.46923, 281.649942)"><g><path d="M 1.84375 0 L 0.953125 0 L 0.953125 -5.890625 L 1.84375 -5.890625 Z M 0.875 -7.484375 C 0.875 -7.679688 0.921875 -7.828125 1.015625 -7.921875 C 1.117188 -8.023438 1.242188 -8.078125 1.390625 -8.078125 C 1.535156 -8.078125 1.660156 -8.023438 1.765625 -7.921875 C 1.867188 -7.828125 1.921875 -7.679688 1.921875 -7.484375 C 1.921875 -7.285156 1.867188 -7.132812 1.765625 -7.03125 C 1.660156 -6.9375 1.535156 -6.890625 1.390625 -6.890625 C 1.242188 -6.890625 1.117188 -6.9375 1.015625 -7.03125 C 0.921875 -7.132812 0.875 -7.285156 0.875 -7.484375 Z M 0.875 -7.484375 "/></g></g></g><g fill="#000000" fill-opacity="1"><g transform="translate(90.052498, 281.649942)"><g><path d="M 4.96875 0 L 4.96875 -3.8125 C 4.96875 -4.289062 4.859375 -4.644531 4.640625 -4.875 C 4.421875 -5.113281 4.082031 -5.234375 3.625 -5.234375 C 3.007812 -5.234375 2.554688 -5.066406 2.265625 -4.734375 C 1.984375 -4.398438 1.84375 -3.851562 1.84375 -3.09375 L 1.84375 0 L 0.953125 0 L 0.953125 -5.890625 L 1.671875 -5.890625 L 1.8125 -5.078125 L 1.859375 -5.078125 C 2.035156 -5.367188 2.289062 -5.59375 2.625 -5.75 C 2.957031 -5.914062 3.328125 -6 3.734375 -6 C 4.441406 -6 4.972656 -5.828125 5.328125 -5.484375 C 5.679688 -5.140625 5.859375 -4.59375 5.859375 -3.84375 L 5.859375 0 Z M 4.96875 0 "/></g></g></g><g fill="#000000" fill-opacity="1"><g transform="translate(97.602185, 281.649942)"><g><path d="M 5.765625 -5.890625 L 5.765625 -5.328125 L 4.671875 -5.1875 C 4.773438 -5.0625 4.863281 -4.898438 4.9375 -4.703125 C 5.019531 -4.503906 5.0625 -4.273438 5.0625 -4.015625 C 5.0625 -3.441406 4.863281 -2.984375 4.46875 -2.640625 C 4.070312 -2.296875 3.53125 -2.125 2.84375 -2.125 C 2.664062 -2.125 2.503906 -2.140625 2.359375 -2.171875 C 1.972656 -1.960938 1.78125 -1.707031 1.78125 -1.40625 C 1.78125 -1.25 1.847656 -1.128906 1.984375 -1.046875 C 2.117188 -0.972656 2.347656 -0.9375 2.671875 -0.9375 L 3.703125 -0.9375 C 4.335938 -0.9375 4.828125 -0.800781 5.171875 -0.53125 C 5.515625 -0.257812 5.6875 0.128906 5.6875 0.640625 C 5.6875 1.285156 5.425781 1.78125 4.90625 2.125 C 4.382812 2.46875 3.617188 2.640625 2.609375 2.640625 C 1.847656 2.640625 1.253906 2.492188 0.828125 2.203125 C 0.410156 1.921875 0.203125 1.519531 0.203125 1 C 0.203125 0.644531 0.316406 0.332031 0.546875 0.0625 C 0.773438 -0.195312 1.097656 -0.375 1.515625 -0.46875 C 1.367188 -0.53125 1.242188 -0.632812 1.140625 -0.78125 C 1.035156 -0.925781 0.984375 -1.09375 0.984375 -1.28125 C 0.984375 -1.488281 1.039062 -1.671875 1.15625 -1.828125 C 1.269531 -1.992188 1.453125 -2.15625 1.703125 -2.3125 C 1.398438 -2.4375 1.148438 -2.648438 0.953125 -2.953125 C 0.765625 -3.253906 0.671875 -3.597656 0.671875 -3.984375 C 0.671875 -4.628906 0.863281 -5.125 1.25 -5.46875 C 1.632812 -5.820312 2.179688 -6 2.890625 -6 C 3.203125 -6 3.484375 -5.960938 3.734375 -5.890625 Z M 1.0625 0.984375 C 1.0625 1.304688 1.195312 1.546875 1.46875 1.703125 C 1.738281 1.867188 2.125 1.953125 2.625 1.953125 C 3.375 1.953125 3.925781 1.84375 4.28125 1.625 C 4.644531 1.40625 4.828125 1.101562 4.828125 0.71875 C 4.828125 0.394531 4.726562 0.171875 4.53125 0.046875 C 4.332031 -0.078125 3.960938 -0.140625 3.421875 -0.140625 L 2.359375 -0.140625 C 1.953125 -0.140625 1.632812 -0.0390625 1.40625 0.15625 C 1.175781 0.351562 1.0625 0.628906 1.0625 0.984375 Z M 1.546875 -4 C 1.546875 -3.59375 1.660156 -3.28125 1.890625 -3.0625 C 2.128906 -2.851562 2.457031 -2.75 2.875 -2.75 C 3.738281 -2.75 4.171875 -3.171875 4.171875 -4.015625 C 4.171875 -4.898438 3.734375 -5.34375 2.859375 -5.34375 C 2.441406 -5.34375 2.117188 -5.226562 1.890625 -5 C 1.660156 -4.78125 1.546875 -4.445312 1.546875 -4 Z M 1.546875 -4 "/></g></g></g><g fill="#000000" fill-opacity="1"><g transform="translate(104.427289, 281.649942)"><g/></g></g><g fill="#000000" fill-opacity="1"><g transform="translate(108.085702, 281.649942)"><g><path d="M 3.078125 -3.921875 L 5.171875 -7.859375 L 6.15625 -7.859375 L 3.546875 -3.046875 L 3.546875 0 L 2.609375 0 L 2.609375 -3 L 0 -7.859375 L 1 -7.859375 Z M 3.078125 -3.921875 "/></g></g></g><g fill="#000000" fill-opacity="1"><g transform="translate(115.044991, 281.649942)"><g><path d="M 6.03125 -2.953125 C 6.03125 -1.992188 5.785156 -1.242188 5.296875 -0.703125 C 4.816406 -0.160156 4.148438 0.109375 3.296875 0.109375 C 2.773438 0.109375 2.304688 -0.015625 1.890625 -0.265625 C 1.484375 -0.515625 1.171875 -0.867188 0.953125 -1.328125 C 0.734375 -1.785156 0.625 -2.328125 0.625 -2.953125 C 0.625 -3.910156 0.863281 -4.65625 1.34375 -5.1875 C 1.820312 -5.726562 2.484375 -6 3.328125 -6 C 4.160156 -6 4.816406 -5.722656 5.296875 -5.171875 C 5.785156 -4.617188 6.03125 -3.878906 6.03125 -2.953125 Z M 1.546875 -2.953125 C 1.546875 -2.203125 1.691406 -1.628906 1.984375 -1.234375 C 2.285156 -0.835938 2.726562 -0.640625 3.3125 -0.640625 C 3.894531 -0.640625 4.335938 -0.832031 4.640625 -1.21875 C 4.953125 -1.613281 5.109375 -2.191406 5.109375 -2.953125 C 5.109375 -3.703125 4.953125 -4.269531 4.640625 -4.65625 C 4.335938 -5.039062 3.894531 -5.234375 3.3125 -5.234375 C 2.726562 -5.234375 2.285156 -5.039062 1.984375 -4.65625 C 1.691406 -4.28125 1.546875 -3.710938 1.546875 -2.953125 Z M 1.546875 -2.953125 "/></g></g></g><g fill="#000000" fill-opacity="1"><g transform="translate(122.487335, 281.649942)"><g><path d="M 1.78125 -5.890625 L 1.78125 -2.0625 C 1.78125 -1.582031 1.890625 -1.222656 2.109375 -0.984375 C 2.328125 -0.753906 2.671875 -0.640625 3.140625 -0.640625 C 3.753906 -0.640625 4.203125 -0.804688 4.484375 -1.140625 C 4.773438 -1.484375 4.921875 -2.035156 4.921875 -2.796875 L 4.921875 -5.890625 L 5.8125 -5.890625 L 5.8125 0 L 5.078125 0 L 4.9375 -0.796875 L 4.890625 -0.796875 C 4.710938 -0.503906 4.457031 -0.28125 4.125 -0.125 C 3.800781 0.03125 3.4375 0.109375 3.03125 0.109375 C 2.3125 0.109375 1.769531 -0.0546875 1.40625 -0.390625 C 1.050781 -0.734375 0.875 -1.28125 0.875 -2.03125 L 0.875 -5.890625 Z M 1.78125 -5.890625 "/></g></g></g><g fill="#000000" fill-opacity="1"><g transform="translate(130.037025, 281.649942)"><g/></g></g><g fill="#000000" fill-opacity="1"><g transform="translate(133.695438, 281.649942)"><g><path d="M 1.078125 -7.859375 L 3.296875 -7.859375 C 4.335938 -7.859375 5.085938 -7.703125 5.546875 -7.390625 C 6.015625 -7.078125 6.25 -6.582031 6.25 -5.90625 C 6.25 -5.4375 6.117188 -5.050781 5.859375 -4.75 C 5.609375 -4.445312 5.234375 -4.253906 4.734375 -4.171875 L 4.734375 -4.109375 C 5.921875 -3.910156 6.515625 -3.285156 6.515625 -2.234375 C 6.515625 -1.535156 6.273438 -0.988281 5.796875 -0.59375 C 5.328125 -0.195312 4.664062 0 3.8125 0 L 1.078125 0 Z M 2 -4.484375 L 3.5 -4.484375 C 4.144531 -4.484375 4.609375 -4.582031 4.890625 -4.78125 C 5.171875 -4.988281 5.3125 -5.332031 5.3125 -5.8125 C 5.3125 -6.257812 5.148438 -6.578125 4.828125 -6.765625 C 4.515625 -6.960938 4.015625 -7.0625 3.328125 -7.0625 L 2 -7.0625 Z M 2 -3.71875 L 2 -0.78125 L 3.625 -0.78125 C 4.257812 -0.78125 4.738281 -0.898438 5.0625 -1.140625 C 5.382812 -1.390625 5.546875 -1.773438 5.546875 -2.296875 C 5.546875 -2.785156 5.378906 -3.144531 5.046875 -3.375 C 4.722656 -3.601562 4.226562 -3.71875 3.5625 -3.71875 Z M 2 -3.71875 "/></g></g></g><g fill="#000000" fill-opacity="1"><g transform="translate(141.620837, 281.649942)"><g><path d="M 1.78125 -5.890625 L 1.78125 -2.0625 C 1.78125 -1.582031 1.890625 -1.222656 2.109375 -0.984375 C 2.328125 -0.753906 2.671875 -0.640625 3.140625 -0.640625 C 3.753906 -0.640625 4.203125 -0.804688 4.484375 -1.140625 C 4.773438 -1.484375 4.921875 -2.035156 4.921875 -2.796875 L 4.921875 -5.890625 L 5.8125 -5.890625 L 5.8125 0 L 5.078125 0 L 4.9375 -0.796875 L 4.890625 -0.796875 C 4.710938 -0.503906 4.457031 -0.28125 4.125 -0.125 C 3.800781 0.03125 3.4375 0.109375 3.03125 0.109375 C 2.3125 0.109375 1.769531 -0.0546875 1.40625 -0.390625 C 1.050781 -0.734375 0.875 -1.28125 0.875 -2.03125 L 0.875 -5.890625 Z M 1.78125 -5.890625 "/></g></g></g><g fill="#000000" fill-opacity="1"><g transform="translate(149.170527, 281.649942)"><g><path d="M 1.84375 0 L 0.953125 0 L 0.953125 -5.890625 L 1.84375 -5.890625 Z M 0.875 -7.484375 C 0.875 -7.679688 0.921875 -7.828125 1.015625 -7.921875 C 1.117188 -8.023438 1.242188 -8.078125 1.390625 -8.078125 C 1.535156 -8.078125 1.660156 -8.023438 1.765625 -7.921875 C 1.867188 -7.828125 1.921875 -7.679688 1.921875 -7.484375 C 1.921875 -7.285156 1.867188 -7.132812 1.765625 -7.03125 C 1.660156 -6.9375 1.535156 -6.890625 1.390625 -6.890625 C 1.242188 -6.890625 1.117188 -6.9375 1.015625 -7.03125 C 0.921875 -7.132812 0.875 -7.285156 0.875 -7.484375 Z M 0.875 -7.484375 "/></g></g></g><g fill="#000000" fill-opacity="1"><g transform="translate(152.753797, 281.649942)"><g><path d="M 1.84375 0 L 0.953125 0 L 0.953125 -8.359375 L 1.84375 -8.359375 Z M 1.84375 0 "/></g></g></g><g fill="#000000" fill-opacity="1"><g transform="translate(156.337062, 281.649942)"><g><path d="M 4.953125 -0.796875 L 4.90625 -0.796875 C 4.488281 -0.191406 3.875 0.109375 3.0625 0.109375 C 2.289062 0.109375 1.691406 -0.148438 1.265625 -0.671875 C 0.835938 -1.203125 0.625 -1.953125 0.625 -2.921875 C 0.625 -3.898438 0.835938 -4.65625 1.265625 -5.1875 C 1.691406 -5.726562 2.289062 -6 3.0625 -6 C 3.851562 -6 4.460938 -5.707031 4.890625 -5.125 L 4.96875 -5.125 L 4.921875 -5.546875 L 4.90625 -5.96875 L 4.90625 -8.359375 L 5.796875 -8.359375 L 5.796875 0 L 5.078125 0 Z M 3.171875 -0.640625 C 3.773438 -0.640625 4.210938 -0.804688 4.484375 -1.140625 C 4.765625 -1.472656 4.90625 -2.003906 4.90625 -2.734375 L 4.90625 -2.921875 C 4.90625 -3.753906 4.765625 -4.347656 4.484375 -4.703125 C 4.210938 -5.066406 3.769531 -5.25 3.15625 -5.25 C 2.632812 -5.25 2.234375 -5.046875 1.953125 -4.640625 C 1.679688 -4.234375 1.546875 -3.660156 1.546875 -2.921875 C 1.546875 -2.160156 1.679688 -1.585938 1.953125 -1.203125 C 2.234375 -0.828125 2.640625 -0.640625 3.171875 -0.640625 Z M 3.171875 -0.640625 "/></g></g></g><g fill="#000000" fill-opacity="1"><g transform="translate(163.876018, 281.649942)"><g/></g></g><g fill="#000000" fill-opacity="1"><g transform="translate(167.53443, 281.649942)"><g><path d="M 2.84375 -0.625 C 3 -0.625 3.148438 -0.632812 3.296875 -0.65625 C 3.453125 -0.6875 3.570312 -0.710938 3.65625 -0.734375 L 3.65625 -0.046875 C 3.550781 -0.00390625 3.40625 0.03125 3.21875 0.0625 C 3.03125 0.09375 2.863281 0.109375 2.71875 0.109375 C 1.582031 0.109375 1.015625 -0.488281 1.015625 -1.6875 L 1.015625 -5.1875 L 0.171875 -5.1875 L 0.171875 -5.625 L 1.015625 -6 L 1.390625 -7.25 L 1.90625 -7.25 L 1.90625 -5.890625 L 3.609375 -5.890625 L 3.609375 -5.1875 L 1.90625 -5.1875 L 1.90625 -1.734375 C 1.90625 -1.378906 1.988281 -1.101562 2.15625 -0.90625 C 2.320312 -0.71875 2.550781 -0.625 2.84375 -0.625 Z M 2.84375 -0.625 "/></g></g></g><g fill="#000000" fill-opacity="1"><g transform="translate(172.217993, 281.649942)"><g><path d="M 4.96875 0 L 4.96875 -3.8125 C 4.96875 -4.289062 4.859375 -4.644531 4.640625 -4.875 C 4.421875 -5.113281 4.082031 -5.234375 3.625 -5.234375 C 3 -5.234375 2.546875 -5.066406 2.265625 -4.734375 C 1.984375 -4.398438 1.84375 -3.847656 1.84375 -3.078125 L 1.84375 0 L 0.953125 0 L 0.953125 -8.359375 L 1.84375 -8.359375 L 1.84375 -5.828125 C 1.84375 -5.523438 1.828125 -5.273438 1.796875 -5.078125 L 1.84375 -5.078125 C 2.019531 -5.359375 2.269531 -5.578125 2.59375 -5.734375 C 2.914062 -5.898438 3.285156 -5.984375 3.703125 -5.984375 C 4.421875 -5.984375 4.957031 -5.8125 5.3125 -5.46875 C 5.675781 -5.125 5.859375 -4.582031 5.859375 -3.84375 L 5.859375 0 Z M 4.96875 0 "/></g></g></g><g fill="#000000" fill-opacity="1"><g transform="translate(179.767683, 281.649942)"><g><path d="M 3.4375 0.109375 C 2.5625 0.109375 1.875 -0.15625 1.375 -0.6875 C 0.875 -1.21875 0.625 -1.953125 0.625 -2.890625 C 0.625 -3.835938 0.851562 -4.59375 1.3125 -5.15625 C 1.78125 -5.71875 2.410156 -6 3.203125 -6 C 3.941406 -6 4.523438 -5.753906 4.953125 -5.265625 C 5.378906 -4.773438 5.59375 -4.132812 5.59375 -3.34375 L 5.59375 -2.78125 L 1.546875 -2.78125 C 1.554688 -2.09375 1.726562 -1.566406 2.0625 -1.203125 C 2.394531 -0.847656 2.863281 -0.671875 3.46875 -0.671875 C 4.101562 -0.671875 4.726562 -0.800781 5.34375 -1.0625 L 5.34375 -0.28125 C 5.03125 -0.132812 4.734375 -0.0351562 4.453125 0.015625 C 4.171875 0.078125 3.832031 0.109375 3.4375 0.109375 Z M 3.1875 -5.25 C 2.71875 -5.25 2.34375 -5.09375 2.0625 -4.78125 C 1.78125 -4.476562 1.613281 -4.050781 1.5625 -3.5 L 4.640625 -3.5 C 4.640625 -4.0625 4.515625 -4.492188 4.265625 -4.796875 C 4.015625 -5.097656 3.65625 -5.25 3.1875 -5.25 Z M 3.1875 -5.25 "/></g></g></g><g fill="#000000" fill-opacity="1"><g transform="translate(186.737707, 281.649942)"><g/></g></g><g fill="#000000" fill-opacity="1"><g transform="translate(190.396119, 281.649942)"><g><path d="M 7.21875 0 L 6.171875 0 L 1.875 -6.59375 L 1.84375 -6.59375 C 1.894531 -5.820312 1.921875 -5.113281 1.921875 -4.46875 L 1.921875 0 L 1.078125 0 L 1.078125 -7.859375 L 2.109375 -7.859375 L 6.390625 -1.296875 L 6.4375 -1.296875 C 6.425781 -1.390625 6.40625 -1.695312 6.375 -2.21875 C 6.351562 -2.75 6.347656 -3.125 6.359375 -3.34375 L 6.359375 -7.859375 L 7.21875 -7.859375 Z M 7.21875 0 "/></g></g></g><g fill="#000000" fill-opacity="1"><g transform="translate(199.486218, 281.649942)"><g><path d="M 3.4375 0.109375 C 2.5625 0.109375 1.875 -0.15625 1.375 -0.6875 C 0.875 -1.21875 0.625 -1.953125 0.625 -2.890625 C 0.625 -3.835938 0.851562 -4.59375 1.3125 -5.15625 C 1.78125 -5.71875 2.410156 -6 3.203125 -6 C 3.941406 -6 4.523438 -5.753906 4.953125 -5.265625 C 5.378906 -4.773438 5.59375 -4.132812 5.59375 -3.34375 L 5.59375 -2.78125 L 1.546875 -2.78125 C 1.554688 -2.09375 1.726562 -1.566406 2.0625 -1.203125 C 2.394531 -0.847656 2.863281 -0.671875 3.46875 -0.671875 C 4.101562 -0.671875 4.726562 -0.800781 5.34375 -1.0625 L 5.34375 -0.28125 C 5.03125 -0.132812 4.734375 -0.0351562 4.453125 0.015625 C 4.171875 0.078125 3.832031 0.109375 3.4375 0.109375 Z M 3.1875 -5.25 C 2.71875 -5.25 2.34375 -5.09375 2.0625 -4.78125 C 1.78125 -4.476562 1.613281 -4.050781 1.5625 -3.5 L 4.640625 -3.5 C 4.640625 -4.0625 4.515625 -4.492188 4.265625 -4.796875 C 4.015625 -5.097656 3.65625 -5.25 3.1875 -5.25 Z M 3.1875 -5.25 "/></g></g></g><g fill="#000000" fill-opacity="1"><g transform="translate(206.456242, 281.649942)"><g><path d="M 2.359375 -3.015625 L 0.3125 -5.890625 L 1.328125 -5.890625 L 2.890625 -3.625 L 4.4375 -5.890625 L 5.4375 -5.890625 L 3.390625 -3.015625 L 5.546875 0 L 4.53125 0 L 2.890625 -2.390625 L 1.21875 0 L 0.203125 0 Z M 2.359375 -3.015625 "/></g></g></g><g fill="#000000" fill-opacity="1"><g transform="translate(213.018352, 281.649942)"><g><path d="M 2.84375 -0.625 C 3 -0.625 3.148438 -0.632812 3.296875 -0.65625 C 3.453125 -0.6875 3.570312 -0.710938 3.65625 -0.734375 L 3.65625 -0.046875 C 3.550781 -0.00390625 3.40625 0.03125 3.21875 0.0625 C 3.03125 0.09375 2.863281 0.109375 2.71875 0.109375 C 1.582031 0.109375 1.015625 -0.488281 1.015625 -1.6875 L 1.015625 -5.1875 L 0.171875 -5.1875 L 0.171875 -5.625 L 1.015625 -6 L 1.390625 -7.25 L 1.90625 -7.25 L 1.90625 -5.890625 L 3.609375 -5.890625 L 3.609375 -5.1875 L 1.90625 -5.1875 L 1.90625 -1.734375 C 1.90625 -1.378906 1.988281 -1.101562 2.15625 -0.90625 C 2.320312 -0.71875 2.550781 -0.625 2.84375 -0.625 Z M 2.84375 -0.625 "/></g></g></g><g fill="#000000" fill-opacity="1"><g transform="translate(217.701915, 281.649942)"><g/></g></g><g fill="#000000" fill-opacity="1"><g transform="translate(221.360328, 281.649942)"><g><path d="M 1.078125 0 L 1.078125 -7.859375 L 2 -7.859375 L 2 0 Z M 1.078125 0 "/></g></g></g><g fill="#000000" fill-opacity="1"><g transform="translate(225.228064, 281.649942)"><g><path d="M 4.96875 0 L 4.96875 -3.8125 C 4.96875 -4.289062 4.859375 -4.644531 4.640625 -4.875 C 4.421875 -5.113281 4.082031 -5.234375 3.625 -5.234375 C 3.007812 -5.234375 2.554688 -5.066406 2.265625 -4.734375 C 1.984375 -4.398438 1.84375 -3.851562 1.84375 -3.09375 L 1.84375 0 L 0.953125 0 L 0.953125 -5.890625 L 1.671875 -5.890625 L 1.8125 -5.078125 L 1.859375 -5.078125 C 2.035156 -5.367188 2.289062 -5.59375 2.625 -5.75 C 2.957031 -5.914062 3.328125 -6 3.734375 -6 C 4.441406 -6 4.972656 -5.828125 5.328125 -5.484375 C 5.679688 -5.140625 5.859375 -4.59375 5.859375 -3.84375 L 5.859375 0 Z M 4.96875 0 "/></g></g></g><g fill="#000000" fill-opacity="1"><g transform="translate(232.777754, 281.649942)"><g><path d="M 3.296875 0.109375 C 2.441406 0.109375 1.78125 -0.148438 1.3125 -0.671875 C 0.851562 -1.203125 0.625 -1.945312 0.625 -2.90625 C 0.625 -3.894531 0.859375 -4.65625 1.328125 -5.1875 C 1.804688 -5.726562 2.484375 -6 3.359375 -6 C 3.640625 -6 3.921875 -5.96875 4.203125 -5.90625 C 4.484375 -5.84375 4.707031 -5.769531 4.875 -5.6875 L 4.59375 -4.9375 C 4.394531 -5.007812 4.179688 -5.070312 3.953125 -5.125 C 3.722656 -5.175781 3.515625 -5.203125 3.328125 -5.203125 C 2.140625 -5.203125 1.546875 -4.441406 1.546875 -2.921875 C 1.546875 -2.191406 1.691406 -1.632812 1.984375 -1.25 C 2.273438 -0.863281 2.707031 -0.671875 3.28125 -0.671875 C 3.769531 -0.671875 4.269531 -0.773438 4.78125 -0.984375 L 4.78125 -0.203125 C 4.382812 0.00390625 3.890625 0.109375 3.296875 0.109375 Z M 3.296875 0.109375 "/></g></g></g><g fill="#000000" fill-opacity="1"><g transform="translate(238.813871, 281.649942)"><g><path d="M 3.625 -6 C 3.882812 -6 4.117188 -5.976562 4.328125 -5.9375 L 4.21875 -5.109375 C 3.96875 -5.160156 3.75 -5.1875 3.5625 -5.1875 C 3.09375 -5.1875 2.6875 -4.988281 2.34375 -4.59375 C 2.007812 -4.207031 1.84375 -3.726562 1.84375 -3.15625 L 1.84375 0 L 0.953125 0 L 0.953125 -5.890625 L 1.6875 -5.890625 L 1.78125 -4.796875 L 1.828125 -4.796875 C 2.046875 -5.179688 2.304688 -5.476562 2.609375 -5.6875 C 2.921875 -5.894531 3.257812 -6 3.625 -6 Z M 3.625 -6 "/></g></g></g><g fill="#000000" fill-opacity="1"><g transform="translate(244.103937, 281.649942)"><g><path d="M 3.4375 0.109375 C 2.5625 0.109375 1.875 -0.15625 1.375 -0.6875 C 0.875 -1.21875 0.625 -1.953125 0.625 -2.890625 C 0.625 -3.835938 0.851562 -4.59375 1.3125 -5.15625 C 1.78125 -5.71875 2.410156 -6 3.203125 -6 C 3.941406 -6 4.523438 -5.753906 4.953125 -5.265625 C 5.378906 -4.773438 5.59375 -4.132812 5.59375 -3.34375 L 5.59375 -2.78125 L 1.546875 -2.78125 C 1.554688 -2.09375 1.726562 -1.566406 2.0625 -1.203125 C 2.394531 -0.847656 2.863281 -0.671875 3.46875 -0.671875 C 4.101562 -0.671875 4.726562 -0.800781 5.34375 -1.0625 L 5.34375 -0.28125 C 5.03125 -0.132812 4.734375 -0.0351562 4.453125 0.015625 C 4.171875 0.078125 3.832031 0.109375 3.4375 0.109375 Z M 3.1875 -5.25 C 2.71875 -5.25 2.34375 -5.09375 2.0625 -4.78125 C 1.78125 -4.476562 1.613281 -4.050781 1.5625 -3.5 L 4.640625 -3.5 C 4.640625 -4.0625 4.515625 -4.492188 4.265625 -4.796875 C 4.015625 -5.097656 3.65625 -5.25 3.1875 -5.25 Z M 3.1875 -5.25 "/></g></g></g><g fill="#000000" fill-opacity="1"><g transform="translate(251.07396, 281.649942)"><g><path d="M 4.953125 -0.796875 L 4.90625 -0.796875 C 4.488281 -0.191406 3.875 0.109375 3.0625 0.109375 C 2.289062 0.109375 1.691406 -0.148438 1.265625 -0.671875 C 0.835938 -1.203125 0.625 -1.953125 0.625 -2.921875 C 0.625 -3.898438 0.835938 -4.65625 1.265625 -5.1875 C 1.691406 -5.726562 2.289062 -6 3.0625 -6 C 3.851562 -6 4.460938 -5.707031 4.890625 -5.125 L 4.96875 -5.125 L 4.921875 -5.546875 L 4.90625 -5.96875 L 4.90625 -8.359375 L 5.796875 -8.359375 L 5.796875 0 L 5.078125 0 Z M 3.171875 -0.640625 C 3.773438 -0.640625 4.210938 -0.804688 4.484375 -1.140625 C 4.765625 -1.472656 4.90625 -2.003906 4.90625 -2.734375 L 4.90625 -2.921875 C 4.90625 -3.753906 4.765625 -4.347656 4.484375 -4.703125 C 4.210938 -5.066406 3.769531 -5.25 3.15625 -5.25 C 2.632812 -5.25 2.234375 -5.046875 1.953125 -4.640625 C 1.679688 -4.234375 1.546875 -3.660156 1.546875 -2.921875 C 1.546875 -2.160156 1.679688 -1.585938 1.953125 -1.203125 C 2.234375 -0.828125 2.640625 -0.640625 3.171875 -0.640625 Z M 3.171875 -0.640625 "/></g></g></g><g fill="#000000" fill-opacity="1"><g transform="translate(258.612916, 281.649942)"><g><path d="M 1.84375 0 L 0.953125 0 L 0.953125 -5.890625 L 1.84375 -5.890625 Z M 0.875 -7.484375 C 0.875 -7.679688 0.921875 -7.828125 1.015625 -7.921875 C 1.117188 -8.023438 1.242188 -8.078125 1.390625 -8.078125 C 1.535156 -8.078125 1.660156 -8.023438 1.765625 -7.921875 C 1.867188 -7.828125 1.921875 -7.679688 1.921875 -7.484375 C 1.921875 -7.285156 1.867188 -7.132812 1.765625 -7.03125 C 1.660156 -6.9375 1.535156 -6.890625 1.390625 -6.890625 C 1.242188 -6.890625 1.117188 -6.9375 1.015625 -7.03125 C 0.921875 -7.132812 0.875 -7.285156 0.875 -7.484375 Z M 0.875 -7.484375 "/></g></g></g><g fill="#000000" fill-opacity="1"><g transform="translate(262.196175, 281.649942)"><g><path d="M 3.6875 -5.984375 C 4.457031 -5.984375 5.054688 -5.71875 5.484375 -5.1875 C 5.910156 -4.664062 6.125 -3.921875 6.125 -2.953125 C 6.125 -1.984375 5.90625 -1.226562 5.46875 -0.6875 C 5.039062 -0.15625 4.445312 0.109375 3.6875 0.109375 C 3.300781 0.109375 2.945312 0.0390625 2.625 -0.09375 C 2.3125 -0.238281 2.050781 -0.457031 1.84375 -0.75 L 1.765625 -0.75 L 1.578125 0 L 0.953125 0 L 0.953125 -8.359375 L 1.84375 -8.359375 L 1.84375 -6.328125 C 1.84375 -5.867188 1.828125 -5.460938 1.796875 -5.109375 L 1.84375 -5.109375 C 2.25 -5.691406 2.863281 -5.984375 3.6875 -5.984375 Z M 3.5625 -5.234375 C 2.945312 -5.234375 2.503906 -5.054688 2.234375 -4.703125 C 1.972656 -4.359375 1.84375 -3.773438 1.84375 -2.953125 C 1.84375 -2.117188 1.976562 -1.523438 2.25 -1.171875 C 2.53125 -0.816406 2.972656 -0.640625 3.578125 -0.640625 C 4.128906 -0.640625 4.535156 -0.835938 4.796875 -1.234375 C 5.066406 -1.640625 5.203125 -2.210938 5.203125 -2.953125 C 5.203125 -3.722656 5.066406 -4.296875 4.796875 -4.671875 C 4.535156 -5.046875 4.125 -5.234375 3.5625 -5.234375 Z M 3.5625 -5.234375 "/></g></g></g><g fill="#000000" fill-opacity="1"><g transform="translate(269.73513, 281.649942)"><g><path d="M 1.84375 0 L 0.953125 0 L 0.953125 -8.359375 L 1.84375 -8.359375 Z M 1.84375 0 "/></g></g></g><g fill="#000000" fill-opacity="1"><g transform="translate(273.318389, 281.649942)"><g><path d="M 3.4375 0.109375 C 2.5625 0.109375 1.875 -0.15625 1.375 -0.6875 C 0.875 -1.21875 0.625 -1.953125 0.625 -2.890625 C 0.625 -3.835938 0.851562 -4.59375 1.3125 -5.15625 C 1.78125 -5.71875 2.410156 -6 3.203125 -6 C 3.941406 -6 4.523438 -5.753906 4.953125 -5.265625 C 5.378906 -4.773438 5.59375 -4.132812 5.59375 -3.34375 L 5.59375 -2.78125 L 1.546875 -2.78125 C 1.554688 -2.09375 1.726562 -1.566406 2.0625 -1.203125 C 2.394531 -0.847656 2.863281 -0.671875 3.46875 -0.671875 C 4.101562 -0.671875 4.726562 -0.800781 5.34375 -1.0625 L 5.34375 -0.28125 C 5.03125 -0.132812 4.734375 -0.0351562 4.453125 0.015625 C 4.171875 0.078125 3.832031 0.109375 3.4375 0.109375 Z M 3.1875 -5.25 C 2.71875 -5.25 2.34375 -5.09375 2.0625 -4.78125 C 1.78125 -4.476562 1.613281 -4.050781 1.5625 -3.5 L 4.640625 -3.5 C 4.640625 -4.0625 4.515625 -4.492188 4.265625 -4.796875 C 4.015625 -5.097656 3.65625 -5.25 3.1875 -5.25 Z M 3.1875 -5.25 "/></g></g></g><g fill="#000000" fill-opacity="1"><g transform="translate(280.288413, 281.649942)"><g/></g></g><g fill="#000000" fill-opacity="1"><g transform="translate(283.946814, 281.649942)"><g><path d="M 3.5 0 L 2.578125 0 L 2.578125 -7.046875 L 0.09375 -7.046875 L 0.09375 -7.859375 L 5.984375 -7.859375 L 5.984375 -7.046875 L 3.5 -7.046875 Z M 3.5 0 "/></g></g></g><g fill="#000000" fill-opacity="1"><g transform="translate(290.830961, 281.649942)"><g><path d="M 4.96875 0 L 4.96875 -3.8125 C 4.96875 -4.289062 4.859375 -4.644531 4.640625 -4.875 C 4.421875 -5.113281 4.082031 -5.234375 3.625 -5.234375 C 3 -5.234375 2.546875 -5.066406 2.265625 -4.734375 C 1.984375 -4.398438 1.84375 -3.847656 1.84375 -3.078125 L 1.84375 0 L 0.953125 0 L 0.953125 -8.359375 L 1.84375 -8.359375 L 1.84375 -5.828125 C 1.84375 -5.523438 1.828125 -5.273438 1.796875 -5.078125 L 1.84375 -5.078125 C 2.019531 -5.359375 2.269531 -5.578125 2.59375 -5.734375 C 2.914062 -5.898438 3.285156 -5.984375 3.703125 -5.984375 C 4.421875 -5.984375 4.957031 -5.8125 5.3125 -5.46875 C 5.675781 -5.125 5.859375 -4.582031 5.859375 -3.84375 L 5.859375 0 Z M 4.96875 0 "/></g></g></g><g fill="#000000" fill-opacity="1"><g transform="translate(298.380651, 281.649942)"><g><path d="M 1.84375 0 L 0.953125 0 L 0.953125 -5.890625 L 1.84375 -5.890625 Z M 0.875 -7.484375 C 0.875 -7.679688 0.921875 -7.828125 1.015625 -7.921875 C 1.117188 -8.023438 1.242188 -8.078125 1.390625 -8.078125 C 1.535156 -8.078125 1.660156 -8.023438 1.765625 -7.921875 C 1.867188 -7.828125 1.921875 -7.679688 1.921875 -7.484375 C 1.921875 -7.285156 1.867188 -7.132812 1.765625 -7.03125 C 1.660156 -6.9375 1.535156 -6.890625 1.390625 -6.890625 C 1.242188 -6.890625 1.117188 -6.9375 1.015625 -7.03125 C 0.921875 -7.132812 0.875 -7.285156 0.875 -7.484375 Z M 0.875 -7.484375 "/></g></g></g><g fill="#000000" fill-opacity="1"><g transform="translate(301.963911, 281.649942)"><g><path d="M 4.96875 0 L 4.96875 -3.8125 C 4.96875 -4.289062 4.859375 -4.644531 4.640625 -4.875 C 4.421875 -5.113281 4.082031 -5.234375 3.625 -5.234375 C 3.007812 -5.234375 2.554688 -5.066406 2.265625 -4.734375 C 1.984375 -4.398438 1.84375 -3.851562 1.84375 -3.09375 L 1.84375 0 L 0.953125 0 L 0.953125 -5.890625 L 1.671875 -5.890625 L 1.8125 -5.078125 L 1.859375 -5.078125 C 2.035156 -5.367188 2.289062 -5.59375 2.625 -5.75 C 2.957031 -5.914062 3.328125 -6 3.734375 -6 C 4.441406 -6 4.972656 -5.828125 5.328125 -5.484375 C 5.679688 -5.140625 5.859375 -4.59375 5.859375 -3.84375 L 5.859375 0 Z M 4.96875 0 "/></g></g></g><g fill="#000000" fill-opacity="1"><g transform="translate(309.5136, 281.649942)"><g><path d="M 5.765625 -5.890625 L 5.765625 -5.328125 L 4.671875 -5.1875 C 4.773438 -5.0625 4.863281 -4.898438 4.9375 -4.703125 C 5.019531 -4.503906 5.0625 -4.273438 5.0625 -4.015625 C 5.0625 -3.441406 4.863281 -2.984375 4.46875 -2.640625 C 4.070312 -2.296875 3.53125 -2.125 2.84375 -2.125 C 2.664062 -2.125 2.503906 -2.140625 2.359375 -2.171875 C 1.972656 -1.960938 1.78125 -1.707031 1.78125 -1.40625 C 1.78125 -1.25 1.847656 -1.128906 1.984375 -1.046875 C 2.117188 -0.972656 2.347656 -0.9375 2.671875 -0.9375 L 3.703125 -0.9375 C 4.335938 -0.9375 4.828125 -0.800781 5.171875 -0.53125 C 5.515625 -0.257812 5.6875 0.128906 5.6875 0.640625 C 5.6875 1.285156 5.425781 1.78125 4.90625 2.125 C 4.382812 2.46875 3.617188 2.640625 2.609375 2.640625 C 1.847656 2.640625 1.253906 2.492188 0.828125 2.203125 C 0.410156 1.921875 0.203125 1.519531 0.203125 1 C 0.203125 0.644531 0.316406 0.332031 0.546875 0.0625 C 0.773438 -0.195312 1.097656 -0.375 1.515625 -0.46875 C 1.367188 -0.53125 1.242188 -0.632812 1.140625 -0.78125 C 1.035156 -0.925781 0.984375 -1.09375 0.984375 -1.28125 C 0.984375 -1.488281 1.039062 -1.671875 1.15625 -1.828125 C 1.269531 -1.992188 1.453125 -2.15625 1.703125 -2.3125 C 1.398438 -2.4375 1.148438 -2.648438 0.953125 -2.953125 C 0.765625 -3.253906 0.671875 -3.597656 0.671875 -3.984375 C 0.671875 -4.628906 0.863281 -5.125 1.25 -5.46875 C 1.632812 -5.820312 2.179688 -6 2.890625 -6 C 3.203125 -6 3.484375 -5.960938 3.734375 -5.890625 Z M 1.0625 0.984375 C 1.0625 1.304688 1.195312 1.546875 1.46875 1.703125 C 1.738281 1.867188 2.125 1.953125 2.625 1.953125 C 3.375 1.953125 3.925781 1.84375 4.28125 1.625 C 4.644531 1.40625 4.828125 1.101562 4.828125 0.71875 C 4.828125 0.394531 4.726562 0.171875 4.53125 0.046875 C 4.332031 -0.078125 3.960938 -0.140625 3.421875 -0.140625 L 2.359375 -0.140625 C 1.953125 -0.140625 1.632812 -0.0390625 1.40625 0.15625 C 1.175781 0.351562 1.0625 0.628906 1.0625 0.984375 Z M 1.546875 -4 C 1.546875 -3.59375 1.660156 -3.28125 1.890625 -3.0625 C 2.128906 -2.851562 2.457031 -2.75 2.875 -2.75 C 3.738281 -2.75 4.171875 -3.171875 4.171875 -4.015625 C 4.171875 -4.898438 3.734375 -5.34375 2.859375 -5.34375 C 2.441406 -5.34375 2.117188 -5.226562 1.890625 -5 C 1.660156 -4.78125 1.546875 -4.445312 1.546875 -4 Z M 1.546875 -4 "/></g></g></g></svg>