<svg xmlns="http://www.w3.org/2000/svg" xmlns:xlink="http://www.w3.org/1999/xlink" width="500" zoomAndPan="magnify" viewBox="0 0 375 374.999991" height="500" preserveAspectRatio="xMidYMid meet" version="1.0"><defs><clipPath id="c11675b266"><path d="M 78 54 L 298.753906 54 L 298.753906 321 L 78 321 Z M 78 54 " clip-rule="nonzero"/></clipPath></defs><rect x="-37.5" width="450" fill="#ffffff" y="-37.499999" height="449.999989" fill-opacity="1"/><rect x="-37.5" width="450" fill="#ffffff" y="-37.499999" height="449.999989" fill-opacity="1"/><rect x="-37.5" width="450" fill="#ffffff" y="-37.499999" height="449.999989" fill-opacity="1"/><g clip-path="url(#c11675b266)"><path fill="#000000" d="M 298.742188 241.113281 L 251.1875 259.074219 C 240.765625 263.007812 229.007812 259.640625 222.253906 250.789062 L 215.601562 242.078125 L 172.820312 186.023438 L 79.746094 64.097656 C 76.015625 59.207031 81.019531 52.488281 86.769531 54.660156 L 184.605469 91.601562 L 214.144531 130.296875 L 256.933594 186.34375 Z M 82.199219 308.179688 C 77.761719 314.164062 83.867188 322.242188 90.832031 319.613281 L 184.234375 284.347656 L 207.121094 253.496094 L 164.335938 197.441406 Z M 264.878906 180.160156 L 293.988281 136.023438 C 272.863281 119.125 221.683594 113.019531 221.683594 113.019531 C 225.441406 126.628906 264.878906 180.160156 264.878906 180.160156 Z M 264.878906 180.160156 " fill-opacity="1" fill-rule="nonzero"/></g></svg>