<!DOCTYPE svg PUBLIC "-//W3C//DTD SVG 1.1//EN" "http://www.w3.org/Graphics/SVG/1.1/DTD/svg11.dtd">
<!-- Uploaded to: SVG Repo, www.svgrepo.com, Transformed by: SVG Repo Mixer Tools -->
<svg width="800px" height="800px" viewBox="0 0 14 14" role="img" focusable="false" aria-hidden="true" xmlns="http://www.w3.org/2000/svg" fill="#000000">
<g id="SVGRepo_bgCarrier" stroke-width="0"/>
<g id="SVGRepo_tracerCarrier" stroke-linecap="round" stroke-linejoin="round"/>
<g id="SVGRepo_iconCarrier"> <path fill="#0057FC" d="M7.3 6.4h3.9L13 8.2V3.1c0-.66-.54-1.2-1.2-1.2H7.3c-.66 0-1.2.54-1.2 1.2v2.1c0 .66.54 1.2 1.2 1.2z"/> <path fill="#2196f3" d="M6.7 5.5H2.8L1 7.3V2.2C1 1.54 1.54 1 2.2 1h4.5c.66 0 1.2.54 1.2 1.2v2.1c0 .66-.54 1.2-1.2 1.2z"/> <g fill="#FFDD0F" transform="matrix(.3 0 0 .3 -.2 -.2)"> <circle cx="12" cy="31" r="5"/> <circle cx="36" cy="31" r="5"/> </g> <path fill="#000000" d="M5.8 12.4s-.66-1.2-2.4-1.2c-1.74 0-2.4 1.2-2.4 1.2v.6h4.8v-.6zm7.2 0s-.66-1.2-2.4-1.2c-1.74 0-2.4 1.2-2.4 1.2v.6H13v-.6z"/> </g>
</svg>