<!DOCTYPE svg PUBLIC "-//W3C//DTD SVG 1.1//EN" "http://www.w3.org/Graphics/SVG/1.1/DTD/svg11.dtd">
<!-- Uploaded to: SVG Repo, www.svgrepo.com, Transformed by: SVG Repo Mixer Tools -->
<svg width="800px" height="800px" viewBox="0 0 24 24" fill="none" xmlns="http://www.w3.org/2000/svg">
<g id="SVGRepo_bgCarrier" stroke-width="0"/>
<g id="SVGRepo_tracerCarrier" stroke-linecap="round" stroke-linejoin="round"/>
<g id="SVGRepo_iconCarrier"> <g id="style=bulk"> <g id="share"> <path id="vector (Stroke)" fill-rule="evenodd" clip-rule="evenodd" d="M15.8358 16.1305L9.02549 12.1985L8.27549 13.4976L15.0858 17.4295L15.8358 16.1305Z" fill="#000000"/> <path id="vector (Stroke)_2" fill-rule="evenodd" clip-rule="evenodd" d="M15.8358 7.8656L9.02549 11.7976L8.27549 10.4985L15.0858 6.56657L15.8358 7.8656Z" fill="#000000"/> <path id="Vector (Stroke)" fill-rule="evenodd" clip-rule="evenodd" d="M17.85 9.14961C19.5896 9.14961 21 7.73931 21 5.99961C21 4.25991 19.5896 2.84961 17.85 2.84961C16.1103 2.84961 14.7 4.25991 14.7 5.99961C14.7 7.73931 16.1103 9.14961 17.85 9.14961ZM9.3 11.9936C9.3 13.7333 7.8897 15.1436 6.15 15.1436C4.4103 15.1436 3 13.7333 3 11.9936C3 10.2539 4.4103 8.84363 6.15 8.84363C7.8897 8.84363 9.3 10.2539 9.3 11.9936ZM21 17.9959C21 16.2562 19.5896 14.8459 17.85 14.8459C16.1103 14.8459 14.7 16.2562 14.7 17.9959C14.7 19.7356 16.1103 21.1459 17.85 21.1459C19.5896 21.1459 21 19.7356 21 17.9959Z" fill="#42E739"/> </g> </g> </g>
</svg>