<!DOCTYPE svg PUBLIC "-//W3C//DTD SVG 1.1//EN" "http://www.w3.org/Graphics/SVG/1.1/DTD/svg11.dtd">
<!-- Uploaded to: SVG Repo, www.svgrepo.com, Transformed by: SVG Repo Mixer Tools -->
<svg version="1.1" id="Layer_1" xmlns="http://www.w3.org/2000/svg" xmlns:xlink="http://www.w3.org/1999/xlink" viewBox="0 0 508 508" xml:space="preserve" width="800px" height="800px" fill="#000000">
<g id="SVGRepo_bgCarrier" stroke-width="0"/>
<g id="SVGRepo_tracerCarrier" stroke-linecap="round" stroke-linejoin="round"/>
<g id="SVGRepo_iconCarrier"> <circle style="fill:#FF1F25;" cx="254" cy="254" r="254"/> <path style="fill:#FFFFFF;" d="M317.2,92.8H146.9c-7.2,0-13.1,5.8-13.1,13.1v296.4c0,7.2,5.8,13.1,13.1,13.1h214.3 c7.2,0,13.1-5.8,13.1-13.1V149.8h-44c-7.2,0-13.1-5.8-13.1-13.1V92.8z"/> <g> <path style="fill:#E6E9EE;" d="M317.2,92.8v44c0,7.2,5.8,13.1,13.1,13.1h44L317.2,92.8z"/> <path style="fill:#E6E9EE;" d="M199.9,233h-31c-1.1,0-2-0.9-2-2v-31c0-1.1,0.9-2,2-2h31c1.1,0,2,0.9,2,2v31 C201.9,232.1,201,233,199.9,233z M170.9,229.1h27v-27h-27V229.1z"/> </g> <path style="fill:#FF7058;" d="M186.5,224.2c-1.2,0-2.4-0.6-3.2-1.6l-7.2-9.5c-1.3-1.8-1-4.2,0.8-5.6c1.8-1.3,4.2-1,5.6,0.8l4,5.3 l22.5-29.8c1.3-1.7,3.8-2.1,5.6-0.8c1.7,1.3,2.1,3.8,0.8,5.6l-25.7,34C188.9,223.6,187.8,224.2,186.5,224.2z"/> <path style="fill:#E6E9EE;" d="M199.9,278.6h-31c-1.1,0-2-0.9-2-2v-31c0-1.1,0.9-2,2-2h31c1.1,0,2,0.9,2,2v31 C201.9,277.7,201,278.6,199.9,278.6z M170.9,274.6h27v-27h-27V274.6z"/> <path style="fill:#84DBFF;" d="M186.5,269.8c-1.2,0-2.4-0.6-3.2-1.6l-7.2-9.5c-1.3-1.7-1-4.2,0.8-5.6c1.8-1.3,4.2-1,5.6,0.8l4,5.3 l22.5-29.8c1.3-1.7,3.8-2.1,5.6-0.8c1.7,1.3,2.1,3.8,0.8,5.6l-25.7,34C188.9,269.2,187.8,269.8,186.5,269.8z"/> <path style="fill:#E6E9EE;" d="M199.9,324.2h-31c-1.1,0-2-0.9-2-2v-31c0-1.1,0.9-2,2-2h31c1.1,0,2,0.9,2,2v31 C201.9,323.3,201,324.2,199.9,324.2z M170.9,320.2h27v-27h-27V320.2z"/> <path style="fill:#FFD05B;" d="M186.5,315.3c-1.2,0-2.4-0.6-3.2-1.6l-7.2-9.5c-1.3-1.7-1-4.2,0.8-5.6c1.8-1.3,4.2-1,5.6,0.8l4,5.3 L209,275c1.3-1.7,3.8-2.1,5.6-0.8c1.7,1.3,2.1,3.8,0.8,5.6l-25.7,34C188.9,314.8,187.8,315.3,186.5,315.3z"/> <path style="fill:#E6E9EE;" d="M199.9,369.8h-31c-1.1,0-2-0.9-2-2v-31c0-1.1,0.9-2,2-2h31c1.1,0,2,0.9,2,2v31 C201.9,368.9,201,369.8,199.9,369.8z M170.9,365.8h27v-27h-27V365.8z"/> <path style="fill:#2C9984;" d="M186.5,360.9c-1.2,0-2.4-0.6-3.2-1.6l-7.2-9.5c-1.3-1.7-1-4.2,0.8-5.6c1.8-1.3,4.2-1,5.6,0.8l4,5.3 l22.5-29.8c1.3-1.7,3.8-2.1,5.6-0.8c1.7,1.3,2.1,3.8,0.8,5.6l-25.7,34C188.9,360.3,187.8,360.9,186.5,360.9z"/> <g> <rect x="242.8" y="199.6" style="fill:#E6E9EE;" width="102.9" height="7.2"/> <rect x="242.8" y="216.6" style="fill:#E6E9EE;" width="63.5" height="7.2"/> <rect x="242.8" y="249" style="fill:#E6E9EE;" width="102.9" height="7.2"/> <rect x="242.8" y="266" style="fill:#E6E9EE;" width="63.5" height="7.2"/> <rect x="242.8" y="298.4" style="fill:#E6E9EE;" width="102.9" height="7.2"/> <rect x="242.8" y="315.4" style="fill:#E6E9EE;" width="63.5" height="7.2"/> <rect x="242.8" y="347.8" style="fill:#E6E9EE;" width="102.9" height="7.2"/> <rect x="242.8" y="364.8" style="fill:#E6E9EE;" width="63.5" height="7.2"/> </g> </g>
</svg>